<?xml version="1.0" standalone="no"?>
<!DOCTYPE svg PUBLIC "-//W3C//DTD SVG 20010904//EN"
 "http://www.w3.org/TR/2001/REC-SVG-20010904/DTD/svg10.dtd">
<svg version="1.0" xmlns="http://www.w3.org/2000/svg"
 width="80.000000pt" height="80.000000pt" viewBox="0 0 80.000000 80.000000"
 preserveAspectRatio="xMidYMid meet">
<metadata>
Created by potrace 1.11, written by Peter Selinger 2001-2013
</metadata>
<g transform="translate(0.000000,80.000000) scale(0.100000,-0.100000)"
fill="#000000" stroke="none">
<path d="M450 690 c-8 -14 -8 -20 0 -20 6 0 9 -4 6 -8 -3 -5 13 -7 35 -5 29 2
39 -1 39 -12 0 -8 -5 -15 -11 -15 -5 0 -7 5 -3 12 4 7 3 8 -4 4 -11 -7 -6 -36
7 -36 4 0 8 -7 8 -15 0 -8 -4 -12 -8 -10 -11 7 -29 -20 -21 -32 8 -12 53 -25
84 -25 55 1 -5 -56 -89 -86 -76 -27 -100 -46 -99 -79 1 -15 5 -33 9 -40 4 -6
3 -14 -3 -18 -5 -3 -10 -12 -10 -18 0 -8 3 -8 9 1 11 18 64 5 57 -14 -3 -7 0
-16 6 -20 7 -4 8 -3 4 4 -4 7 -2 12 4 12 6 0 9 4 5 9 -3 5 0 13 6 17 8 4 9 3
5 -4 -4 -7 -3 -12 3 -12 5 0 12 6 14 13 4 9 6 9 6 -1 1 -7 -6 -21 -15 -30 -15
-14 -14 -17 10 -35 14 -10 24 -22 22 -25 -2 -4 9 -7 24 -7 15 0 26 3 24 6 -4
7 34 22 49 20 4 -1 7 4 7 10 0 5 5 7 10 4 6 -3 10 -1 10 4 0 6 5 11 10 11 6 0
10 -7 10 -16 0 -14 1 -14 16 0 8 9 20 13 26 10 7 -5 8 -2 4 5 -5 7 -1 20 7 29
22 25 39 109 32 160 -7 50 -30 114 -58 157 -57 88 -218 150 -247 95z"/>
<path d="M250 664 c-30 -14 -58 -31 -62 -37 -4 -7 -8 -8 -8 -3 0 15 -70 -78
-70 -94 0 -9 -8 -26 -17 -39 -9 -14 -11 -21 -5 -17 16 9 4 -22 -17 -49 -15
-18 -15 -19 0 -7 15 11 16 8 15 -23 -1 -19 -5 -38 -9 -41 -4 -4 -7 -12 -7 -18
0 -6 5 -4 10 4 10 16 10 15 14 -37 0 -10 6 -24 13 -31 7 -7 13 -20 13 -28 0
-8 11 -24 25 -36 14 -12 25 -27 25 -34 0 -8 6 -11 17 -7 12 5 14 3 8 -7 -6
-10 -4 -12 8 -7 9 3 20 1 24 -6 5 -7 17 -13 28 -13 30 -2 59 -9 70 -16 6 -3
20 -1 32 5 36 20 10 44 -50 46 -14 1 -15 4 -5 21 23 37 0 72 -63 95 l-56 20
20 27 c18 24 19 32 9 65 -11 35 -10 40 10 57 13 10 45 29 71 43 36 18 48 29
44 42 -2 10 2 26 9 35 13 19 8 46 -10 58 -8 5 -7 11 1 19 15 15 5 39 -16 39
-9 0 -41 -12 -71 -26z"/>
<path d="M470 640 c0 -5 5 -10 11 -10 5 0 7 5 4 10 -3 6 -8 10 -11 10 -2 0 -4
-4 -4 -10z"/>
<path d="M75 521 c-3 -5 -2 -12 3 -15 5 -3 9 1 9 9 0 17 -3 19 -12 6z"/>
<path d="M536 522 c-3 -4 4 -9 15 -9 23 -2 25 3 4 10 -8 4 -16 3 -19 -1z"/>
<path d="M579 503 c-13 -16 -12 -17 4 -4 9 7 17 15 17 17 0 8 -8 3 -21 -13z"/>
<path d="M375 320 c3 -5 8 -10 11 -10 2 0 4 5 4 10 0 6 -5 10 -11 10 -5 0 -7
-4 -4 -10z"/>
<path d="M410 279 c0 -5 5 -7 10 -4 6 3 10 8 10 11 0 2 -4 4 -10 4 -5 0 -10
-5 -10 -11z"/>
<path d="M70 276 c0 -3 9 -10 20 -16 11 -6 20 -8 20 -6 0 3 -9 10 -20 16 -11
6 -20 8 -20 6z"/>
<path d="M110 196 c0 -2 8 -10 18 -17 15 -13 16 -12 3 4 -13 16 -21 21 -21 13z"/>
<path d="M146 187 c3 -10 9 -15 12 -12 3 3 0 11 -7 18 -10 9 -11 8 -5 -6z"/>
<path d="M196 127 c3 -10 9 -15 12 -12 3 3 0 11 -7 18 -10 9 -11 8 -5 -6z"/>
<path d="M250 122 c0 -5 7 -9 15 -9 8 0 12 4 9 9 -7 10 -24 10 -24 0z"/>
</g>
</svg>
